<?xml version="1.0" standalone="no"?>
<!DOCTYPE svg PUBLIC "-//W3C//DTD SVG 20010904//EN"
 "http://www.w3.org/TR/2001/REC-SVG-20010904/DTD/svg10.dtd">
<svg version="1.0" xmlns="http://www.w3.org/2000/svg"
 width="930.000000pt" height="930.000000pt" viewBox="0 0 930.000000 930.000000"
 preserveAspectRatio="xMidYMid meet">
<metadata>
Created by potrace 1.16, written by Peter Selinger 2001-2019
</metadata>
<g transform="translate(0.000000,930.000000) scale(0.100000,-0.100000)"
fill="#000000" stroke="none">
<path d="M3877 7189 c-79 -27 -123 -56 -184 -123 l-52 -56 -471 0 c-514 0
-524 -1 -549 -56 -8 -18 -11 -649 -11 -2414 l0 -2388 26 -31 26 -31 1960 0
c1325 0 1966 3 1979 10 51 28 49 -5 49 1057 l0 988 383 662 c210 365 387 663
394 663 7 0 28 -15 46 -34 38 -38 60 -106 51 -155 -4 -18 -125 -237 -270 -489
-286 -496 -289 -502 -240 -555 35 -37 72 -44 115 -21 31 16 71 80 303 483 153
265 274 486 283 516 21 72 19 133 -6 208 -25 76 -77 149 -141 196 l-46 35 30
50 c76 130 93 176 93 261 -1 66 -5 90 -28 140 -102 220 -399 267 -556 89 -24
-27 -126 -193 -227 -369 l-184 -319 0 707 c0 623 -2 712 -16 738 -30 58 -37
59 -556 59 l-473 1 -33 45 c-40 54 -117 106 -196 134 -57 19 -81 20 -750 19
-661 0 -694 -1 -749 -20z m1423 -190 c90 -19 160 -103 160 -191 0 -57 -34
-123 -83 -162 l-39 -31 -699 -3 c-683 -2 -700 -2 -738 18 -79 40 -122 134
-101 218 20 82 75 136 152 151 67 13 1287 13 1348 0z m-1703 -257 c7 -34 20
-76 28 -92 8 -16 15 -31 15 -35 0 -3 -122 -5 -271 -5 -295 0 -324 -5 -348 -56
-8 -18 -11 -463 -11 -1677 l0 -1652 368 -367 367 -368 1218 0 c817 0 1225 3
1238 10 48 26 49 40 49 510 l0 441 84 147 c47 81 92 156 100 167 14 18 15 -56
16 -727 l0 -748 -1820 0 -1820 0 0 2260 0 2260 388 -2 387 -3 12 -63z m2851
-760 l2 -822 -97 -169 -98 -169 -5 857 c-4 687 -8 861 -18 879 -27 47 -61 52
-351 52 l-270 0 19 43 c11 24 22 63 25 87 4 25 8 51 11 58 3 10 86 12 391 10
l388 -3 3 -823z m-400 -546 l2 -969 -322 -556 -321 -556 -33 -290 c-18 -159
-33 -309 -34 -332 l0 -43 -745 0 -745 0 0 265 c0 290 -4 318 -56 352 -25 16
-57 18 -306 21 l-278 3 0 1540 0 1539 1418 -2 1417 -3 3 -969z m1347 633 c44
-39 62 -94 46 -140 -13 -39 -140 -259 -148 -259 -4 0 -58 30 -120 66 -88 51
-113 70 -108 83 3 8 36 67 72 130 75 128 101 151 175 151 39 0 54 -6 83 -31z
m-1634 -2791 c60 -34 109 -67 109 -73 0 -28 -47 -74 -165 -160 -71 -52 -133
-95 -137 -95 -4 0 -5 12 -3 28 3 15 12 89 20 165 15 133 33 197 56 197 7 0 60
-28 120 -62z m286 -585 c-2 -2 -112 -2 -243 -1 l-239 3 215 157 c171 124 221
165 240 200 l25 43 3 -199 c1 -109 1 -201 -1 -203z"/>
<path d="M4168 5897 c-240 -161 -446 -301 -458 -312 -18 -16 -20 -30 -20 -134
0 -64 4 -123 9 -130 5 -8 31 -17 58 -20 l48 -6 3 -372 2 -373 -43 0 c-74 0
-77 -9 -77 -207 0 -132 3 -173 14 -182 10 -8 261 -10 932 -9 l919 3 3 185 c3
208 2 210 -70 210 l-38 0 0 375 0 375 43 0 c24 0 48 5 55 12 8 8 12 53 12 138
l0 127 -452 304 c-249 166 -464 304 -478 306 -19 2 -135 -71 -462 -290z m120
-974 l2 -373 -140 0 -140 0 0 375 0 376 138 -3 137 -3 3 -372z m480 0 l2 -373
-140 0 -140 0 0 375 0 376 138 -3 137 -3 3 -372z m480 0 l2 -373 -140 0 -140
0 0 375 0 376 138 -3 137 -3 3 -372z"/>
<path d="M3653 3835 c-40 -17 -69 -71 -59 -110 4 -15 18 -38 31 -51 l24 -24
751 0 c832 0 787 -4 810 65 16 48 -8 101 -54 120 -52 22 -1454 22 -1503 0z"/>
<path d="M4503 3435 c-39 -17 -53 -42 -53 -93 0 -29 7 -46 26 -66 l27 -26 324
0 c359 0 362 0 383 65 16 48 -8 101 -54 120 -50 21 -605 21 -653 0z"/>
</g>
</svg>
